<?xml version="1.0" encoding="UTF-8"?><svg id="Layer_1" xmlns="http://www.w3.org/2000/svg" width="484.21" height="482.45" xmlns:xlink="http://www.w3.org/1999/xlink" viewBox="0 0 484.21 482.45"><defs><style>.cls-1{fill:url(#linear-gradient);}</style><linearGradient id="linear-gradient" x1="70.2" y1="70.19" x2="413.46" y2="413.45" gradientUnits="userSpaceOnUse"><stop offset=".2" stop-color="#95d47d"/><stop offset=".65" stop-color="#238b95"/></linearGradient></defs><path class="cls-1" d="M193.11,393.69v-.52c0-4.56-2.76-8.69-6.99-10.37-55.92-22.26-95.45-76.85-95.45-140.7,0-19.53,3.7-38.19,10.44-55.33,2.04-5.2.06-11.11-4.78-13.91l-.4-.23c-5.96-3.44-13.54-.73-16.06,5.68-7.78,19.76-12.05,41.28-12.05,63.79,0,73.54,45.55,136.43,109.97,162.02,7.34,2.92,15.32-2.52,15.32-10.43ZM339.12,242.1c0-46.13-32.2-84.72-75.35-94.56-3.32-.76-5.66-3.72-5.66-7.12h0c0-4.69,4.36-8.19,8.94-7.15,49.65,11.33,86.7,55.74,86.7,108.83,0,39.5-20.51,74.19-51.46,94.04-4.84,3.1-11.2-.46-11.2-6.21v-.02c0-2.5,1.28-4.81,3.38-6.16,26.85-17.25,44.65-47.36,44.65-81.65ZM145.09,242.1c0,34.29,17.8,64.4,44.65,81.64,2.1,1.35,3.38,3.66,3.38,6.16v.02c0,5.75-6.36,9.31-11.2,6.21-30.95-19.84-51.46-54.53-51.46-94.03,0-53.08,37.05-97.5,86.7-108.83,4.58-1.04,8.94,2.45,8.94,7.15h0c0,3.4-2.34,6.37-5.66,7.12-43.15,9.84-75.35,48.43-75.35,94.56ZM143.46,427.94c6.63,3.62,14.61,7.41,23.88,10.76,9.6,3.46,18.34,6.39,26.05,7.12,2.11.2,13.32-.21,22.39-9.25,5.74-5.72,9.3-13.62,9.33-22.35h0v-45.17s0,0,0,0v-122.73l-1.06-.47-35.66,32.79c-.41.37-1.06.09-1.06-.47v-32.23l.21-.47,54.56-50.18h0l54.77,50.37h0v33.79s0,0,0,0l-36.72-33.92-1.07.47v174.68c0,32.62-26.46,59.62-59.08,59.02-5.34-.1-10.5-.93-15.39-2.37,0,0,0,0,0,0C61.86,447.43-24.26,323.97,6.14,186.74,26.3,95.74,98.33,24.71,189.55,5.53c156.66-32.94,294.66,85.7,294.66,236.57,0,116.93-82.77,215.11-193.12,237.15-8.5,1.7-18.93,2.74-29.05,3.2-.63.03-.91-.79-.39-1.15,4.47-3.13,11.01-8.54,15.99-16.11,4.08-6.21,6.24-12.12,7.42-16.45.06-.22.24-.39.46-.44,97.61-22.45,166.95-108.92,166.95-206.2,0-129.41-116.85-231.53-250.79-206.61C117.63,51.14,51.44,117.13,35.6,201.14c-18.34,97.26,30.34,185.56,107.86,226.8,0,.04.01.08.02.12M291.08,393.22c0-4.56,2.76-8.69,7-10.37,55.92-22.26,95.45-76.88,95.45-140.74,0-19.53-3.7-38.19-10.44-55.33-2.04-5.2-.06-11.11,4.78-13.91l.4-.23c5.96-3.44,13.53-.73,16.06,5.68,7.78,19.76,12.05,41.28,12.05,63.79,0,73.54-45.55,136.43-109.97,162.01-7.34,2.92-15.32-2.52-15.32-10.43v-.47ZM242.1,90.68c-45.83,0-86.9,20.36-114.66,52.53-3.57,4.14-9.59,5.13-14.32,2.4h0c-6.24-3.6-7.59-11.98-2.88-17.42,31.95-36.96,79.17-60.34,131.86-60.34s99.91,23.39,131.86,60.34c4.71,5.45,3.36,13.82-2.88,17.42h0c-4.73,2.73-10.75,1.74-14.32-2.4-27.77-32.17-68.83-52.53-114.66-52.53Z"/></svg>