<?xml version="1.0" encoding="UTF-8"?><svg id="Layer_1" xmlns="http://www.w3.org/2000/svg" width="995.5" height="307.66" xmlns:xlink="http://www.w3.org/1999/xlink" viewBox="0 0 995.5 307.66"><defs><style>.cls-1{fill:none;}.cls-2{fill:url(#linear-gradient-2);}.cls-3{fill:url(#linear-gradient);}.cls-4{clip-path:url(#clippath);}</style><clipPath id="clippath"><path class="cls-1" d="M195.54,300.53l-8.77-17.07c63.75-17.14,106.45-74.71,100.63-140.62-2.04-23.05-9.8-43.58-22.27-62.7C231.77,29.04,168.22,5.85,110.04,26.12,43.74,49.22,4.76,122.02,23.77,190.35c13.84,49.74,59.01,88.7,110.48,95.88,2.35-4.54,4.7-9.58,4.76-14.47l1.24-117.29-29.37,27.01v-26.39l42.56-39.14,42.56,39.14v26.26l-29.37-27.13-.16,107.63c-.24,19.78,6.32,23.91,14.16,42.27-12.45,2.4-36.7,2.45-48.66.7-30.95-4.53-59.49-18.43-82.56-39.25-67.82-61.19-64.12-163.9.72-224.61C80.78,12.25,123.13-3.03,165.23.75c76.31,6.87,134.67,67.38,141.12,142.95,6.14,71.95-41.72,137.18-110.82,156.83ZM245.87,131.2l13.76-2.79c-12.01-43.44-48.84-76.61-94.43-81.33-8.37-.87-16.77-.37-24.94.26-29.8,2.31-60.24,21.64-77.08,46.14,4.75,3.07,8.2,5.11,12.22,7.17,12.08-15.35,26.57-27.21,44.53-33.88,53.28-19.78,109.45,10.22,125.94,64.43ZM64.83,119.32l-12.66-5.88c-26.92,62.35,7.61,133.24,73.01,150.39l-.19-14.81c-42.16-13.61-70.93-53.59-67.51-98.22.89-11.66,4.09-20.97,7.34-31.48ZM143.17,98.84l-.48-13.19c-34.95,5.65-60.17,34.19-62.04,68.63-1.66,30.53,16.4,58.74,45.16,70.2l.25-13.57c-18.5-9.46-31.26-27.08-32.96-48.45-2.54-31.77,20.11-58.16,50.07-63.62ZM181.03,210.81l.17,13.84c28.44-12.19,46.77-40.53,44.58-71.5-2.43-34.41-27.66-61.9-61.54-67.49l-.39,12.94c31.14,6.53,52.4,33.73,49.32,65.41-1.95,20.09-14.34,36.99-32.14,46.8ZM263.04,150.54l-13.9,1.76c1.39,24.95-6.68,47.67-22.59,66.95-11.75,14.24-27.45,23.74-45.37,29.98l.3,15.01c51.55-14.46,85.96-61.97,81.56-113.7Z"/></clipPath><linearGradient id="linear-gradient" x1="0" y1="0" x2="307.66" y2="307.66" gradientUnits="userSpaceOnUse"><stop offset=".2" stop-color="#95d47d"/><stop offset=".65" stop-color="#238b95"/></linearGradient><linearGradient id="linear-gradient-2" x1="840.85" y1="54.31" x2="978.78" y2="192.23" xlink:href="#linear-gradient"/></defs><g class="cls-4"><rect class="cls-3" width="307.66" height="307.66"/></g><path class="cls-2" d="M983.37,64h-147.11c-6.7,0-12.12,5.31-12.12,11.87v94.81c0,6.55,5.43,11.87,12.12,11.87h147.11c6.7,0,12.12-5.31,12.12-11.87v-94.81c0-6.55-5.43-11.87-12.12-11.87ZM917.17,164.38l-7.83-19.03h-39.16l-7.72,19.03h-14.99l35.24-82.23h14.32l35.35,82.23h-15.21ZM956.89,164.38h-14.54v-82.23h14.54v82.23ZM889.76,97.43l14.77,35.95h-29.42l14.66-35.95Z"/><path d="M364.24,170.65l6.34-16.23c7.89,7.23,20.43,12.38,32.54,12.38,15.35,0,21.83-6.27,21.83-14.62,0-24.27-58.6-8.36-58.6-50.15,0-18.16,12.68-33.59,39.73-33.59,11.83,0,24.23,3.54,32.82,9.96l-5.78,16.23c-8.88-5.95-18.59-8.84-27.19-8.84-15.21,0-21.41,6.75-21.41,15.27,0,23.95,58.46,8.36,58.46,49.66,0,18-12.82,33.43-39.87,33.43-15.35,0-30.71-5.46-38.88-13.5Z"/><path d="M451.44,70.52c0-6.75,4.79-12.05,11.27-12.05s11.27,4.98,11.27,11.57c0,7.07-4.65,12.54-11.27,12.54s-11.27-5.3-11.27-12.05ZM453.83,96.72h17.61v85.82h-17.61v-85.82Z"/><path d="M563.57,96.72v72.81c0,31.18-14.23,45.32-40.57,45.32-14.09,0-28.03-4.18-36.63-12.21l7.89-15.11c6.62,6.27,17.33,10.29,27.75,10.29,16.62,0,23.95-8.68,23.95-26.04v-4.5c-6.2,7.71-15.07,11.41-25.22,11.41-21.55,0-38.03-16.71-38.03-41.63s16.48-41.3,38.03-41.3c10.57,0,19.86,3.86,26.06,12.38v-11.41h16.76ZM546.24,137.06c0-14.46-9.58-24.27-22.82-24.27s-22.96,9.8-22.96,24.27,9.58,24.59,22.96,24.59,22.82-9.96,22.82-24.59Z"/><path d="M655.13,133.37v49.18h-17.61v-46.61c0-15.27-6.62-22.66-17.89-22.66-12.54,0-20.99,8.68-20.99,25.88v43.39h-17.61v-85.82h16.76v11.09c5.78-7.88,14.93-12.05,25.92-12.05,18.03,0,31.41,11.73,31.41,37.61Z"/><path d="M734.87,132.24v50.31h-16.62v-10.45c-4.23,7.39-12.4,11.57-23.67,11.57-17.19,0-28.03-10.77-28.03-25.71s8.45-25.55,31.27-25.55h19.44v-1.29c0-11.73-6.2-18.64-18.74-18.64-8.45,0-17.19,3.21-22.82,8.52l-6.9-14.63c8.03-7.07,19.72-10.61,31.84-10.61,21.69,0,34.23,11.73,34.23,36.48ZM717.26,155.71v-9.96h-18.17c-11.97,0-15.21,5.14-15.21,11.41,0,7.23,5.35,11.89,14.37,11.89s16.06-4.5,19.02-13.34Z"/><path d="M751.77,63.29h17.61v119.25h-17.61V63.29Z"/><path d="M395.16,250.96c0,7.83-5.48,13.12-12.82,13.12-4.11,0-7.63-1.76-9.79-5.09v14.34h-3.47v-35.23h3.33v5.09c2.1-3.43,5.68-5.29,9.93-5.29,7.34,0,12.82,5.29,12.82,13.07ZM391.69,250.96c0-5.97-4.16-10.03-9.59-10.03s-9.59,4.06-9.59,10.03,4.11,10.03,9.59,10.03,9.59-4.01,9.59-10.03Z"/><path d="M397.71,250.96c0-7.63,5.58-13.07,13.11-13.07s13.07,5.43,13.07,13.07-5.53,13.12-13.07,13.12-13.11-5.48-13.11-13.12ZM420.36,250.96c0-6.02-4.06-10.03-9.54-10.03s-9.59,4.01-9.59,10.03,4.11,10.03,9.59,10.03,9.54-4.01,9.54-10.03Z"/><path d="M466.07,238.09l-9.74,25.74h-3.28l-8.12-21.09-8.12,21.09h-3.28l-9.69-25.74h3.33l8.07,21.87,8.27-21.87h2.98l8.22,21.87,8.17-21.87h3.18Z"/><path d="M491.03,252.04h-21.53c.39,5.38,4.5,8.96,10.13,8.96,3.13,0,5.92-1.13,7.88-3.38l1.96,2.25c-2.3,2.74-5.87,4.21-9.93,4.21-8.02,0-13.51-5.48-13.51-13.12s5.33-13.07,12.58-13.07,12.48,5.33,12.48,13.07c0,.29-.05.69-.05,1.08ZM469.5,249.45h18.25c-.44-5.04-4.11-8.56-9.15-8.56s-8.66,3.52-9.1,8.56Z"/><path d="M509.18,237.9v3.38c-.29,0-.59-.05-.83-.05-5.38,0-8.66,3.43-8.66,9.49v13.11h-3.47v-25.74h3.33v5.04c1.61-3.43,4.89-5.24,9.64-5.24Z"/><path d="M535.65,252.04h-21.53c.39,5.38,4.5,8.96,10.13,8.96,3.13,0,5.92-1.13,7.88-3.38l1.96,2.25c-2.3,2.74-5.87,4.21-9.93,4.21-8.02,0-13.51-5.48-13.51-13.12s5.33-13.07,12.58-13.07,12.48,5.33,12.48,13.07c0,.29-.05.69-.05,1.08ZM514.12,249.45h18.25c-.44-5.04-4.11-8.56-9.15-8.56s-8.66,3.52-9.1,8.56Z"/><path d="M564.33,227.52v36.31h-3.33v-5.09c-2.1,3.47-5.68,5.33-9.93,5.33-7.34,0-12.82-5.33-12.82-13.12s5.48-13.07,12.82-13.07c4.11,0,7.63,1.76,9.79,5.09v-15.46h3.47ZM560.9,250.96c0-6.02-4.11-10.03-9.54-10.03s-9.59,4.01-9.59,10.03,4.11,10.03,9.59,10.03,9.54-4.01,9.54-10.03Z"/><path d="M609.01,250.96c0,7.78-5.48,13.12-12.82,13.12-4.26,0-7.83-1.86-9.93-5.33v5.09h-3.33v-36.31h3.47v15.46c2.15-3.33,5.68-5.09,9.79-5.09,7.34,0,12.82,5.29,12.82,13.07ZM605.53,250.96c0-6.02-4.16-10.03-9.59-10.03s-9.59,4.01-9.59,10.03,4.11,10.03,9.59,10.03,9.59-4.01,9.59-10.03Z"/><path d="M635.04,238.09l-12.87,28.82c-2.15,5.04-4.89,6.66-8.56,6.66-2.4,0-4.7-.78-6.26-2.35l1.61-2.59c1.27,1.27,2.84,1.96,4.7,1.96,2.3,0,3.87-1.08,5.33-4.31l1.13-2.5-11.5-25.69h3.62l9.69,21.87,9.69-21.87h3.43Z"/><path d="M649.28,248.91v-19.33h6.36v19.08c0,7.05,3.18,10.08,8.71,10.08s8.66-3.03,8.66-10.08v-19.08h6.26v19.33c0,9.98-5.63,15.41-14.97,15.41s-15.02-5.43-15.02-15.41Z"/><path d="M713.39,250.77c0,8.12-5.63,13.41-13.26,13.41-3.33,0-6.26-1.13-8.37-3.52v12.67h-6.12v-35.62h5.82v3.42c2.06-2.5,5.09-3.72,8.66-3.72,7.63,0,13.26,5.29,13.26,13.36ZM707.17,250.77c0-4.99-3.33-8.17-7.73-8.17s-7.78,3.18-7.78,8.17,3.38,8.17,7.78,8.17,7.73-3.18,7.73-8.17Z"/><path d="M732.96,262.42c-1.47,1.17-3.67,1.76-5.87,1.76-5.73,0-9-3.03-9-8.81v-12.58h-4.31v-4.89h4.31v-5.97h6.12v5.97h7v4.89h-7v12.43c0,2.54,1.27,3.92,3.62,3.92,1.27,0,2.5-.34,3.43-1.08l1.71,4.36Z"/><path d="M751.16,237.41v5.82c-.54-.1-.98-.15-1.42-.15-4.65,0-7.58,2.74-7.58,8.07v12.67h-6.12v-26.13h5.82v3.82c1.76-2.74,4.94-4.11,9.3-4.11Z"/><path d="M776.12,248.52v15.32h-5.77v-3.18c-1.47,2.25-4.31,3.52-8.22,3.52-5.97,0-9.74-3.28-9.74-7.83s2.94-7.78,10.86-7.78h6.75v-.39c0-3.57-2.15-5.68-6.51-5.68-2.94,0-5.97.98-7.93,2.59l-2.4-4.45c2.79-2.15,6.85-3.23,11.06-3.23,7.54,0,11.89,3.57,11.89,11.11ZM770,255.66v-3.03h-6.31c-4.16,0-5.28,1.57-5.28,3.47,0,2.2,1.86,3.62,4.99,3.62s5.58-1.37,6.61-4.06Z"/><path d="M807.83,227.52v36.31h-5.87v-3.38c-2.06,2.5-5.09,3.72-8.66,3.72-7.58,0-13.21-5.29-13.21-13.41s5.63-13.36,13.21-13.36c3.38,0,6.36,1.12,8.42,3.52v-13.41h6.12ZM801.81,250.77c0-4.99-3.38-8.17-7.78-8.17s-7.78,3.18-7.78,8.17,3.38,8.17,7.78,8.17,7.78-3.18,7.78-8.17Z"/><path d="M838.37,252.73h-20.5c.73,3.82,3.91,6.26,8.47,6.26,2.94,0,5.24-.93,7.1-2.84l3.28,3.77c-2.35,2.79-6.02,4.26-10.52,4.26-8.76,0-14.44-5.63-14.44-13.41s5.73-13.36,13.51-13.36,13.21,5.33,13.21,13.51c0,.49-.05,1.22-.1,1.81ZM817.81,248.66h14.83c-.49-3.77-3.38-6.36-7.39-6.36s-6.85,2.54-7.44,6.36Z"/></svg>